<svg xmlns="http://www.w3.org/2000/svg" xmlns:xlink="http://www.w3.org/1999/xlink" width="1756" height="98" viewBox="0 0 1756 98">
  <defs>
    <filter id="Rectangle_19858" x="-60" y="-60" width="1876" height="218" filterUnits="userSpaceOnUse">
      <feOffset input="SourceAlpha"/>
      <feGaussianBlur stdDeviation="20" result="blur"/>
      <feFlood flood-color="#038581" flood-opacity="0.251"/>
      <feComposite operator="in" in2="blur"/>
      <feComposite in="SourceGraphic"/>
    </filter>
    <clipPath id="clip-path">
      <g transform="matrix(1, 0, 0, 1, 0, 0)" filter="url(#Rectangle_19858)">
        <rect id="Rectangle_19858-2" data-name="Rectangle 19858" width="1756" height="98" rx="14" transform="translate(4359 375)" fill="#fff"/>
      </g>
    </clipPath>
    <radialGradient id="radial-gradient" cx="0.006" cy="0.531" r="1.318" gradientUnits="objectBoundingBox">
      <stop offset="0.287" stop-color="#fff"/>
      <stop offset="0.499" stop-color="#fcfefd"/>
      <stop offset="0.628" stop-color="#f4faf6"/>
      <stop offset="0.735" stop-color="#e6f4e9"/>
      <stop offset="0.83" stop-color="#d1ead8"/>
      <stop offset="0.915" stop-color="#b7dec1"/>
      <stop offset="0.995" stop-color="#97d0a6"/>
      <stop offset="1" stop-color="#95cfa4"/>
    </radialGradient>
    <clipPath id="clip-path-2">
      <rect id="Rectangle_19859" data-name="Rectangle 19859" width="1171" height="1756" transform="translate(0 1171) rotate(-90)"/>
    </clipPath>
    <linearGradient id="linear-gradient" x1="0.952" y1="0.312" x2="0.028" y2="0.696" gradientUnits="objectBoundingBox">
      <stop offset="0" stop-color="#3aa36c"/>
      <stop offset="1" stop-color="#3aa36c" stop-opacity="0"/>
    </linearGradient>
    <linearGradient id="linear-gradient-2" x1="0.747" y1="0.079" x2="0.24" y2="0.942" gradientUnits="objectBoundingBox">
      <stop offset="0" stop-color="#4dc265"/>
      <stop offset="0.069" stop-color="#4dc265" stop-opacity="0.929"/>
      <stop offset="1" stop-color="#4dc265" stop-opacity="0"/>
    </linearGradient>
    <linearGradient id="linear-gradient-3" x1="0.067" y1="0.721" x2="0.959" y2="0.265" gradientUnits="objectBoundingBox">
      <stop offset="0" stop-color="#77c276"/>
      <stop offset="0.141" stop-color="#77c276" stop-opacity="0.859"/>
      <stop offset="1" stop-color="#77c276" stop-opacity="0"/>
    </linearGradient>
  </defs>
  <g id="Mask_Group_12275" data-name="Mask Group 12275" transform="translate(-4359 -375)" clip-path="url(#clip-path)">
    <g id="_14547798_rm222batch3-kul-18" data-name="14547798_rm222batch3-kul-18" transform="translate(4359 -234)">
      <g id="Background">
        <path id="Path_931" data-name="Path 931" d="M0,1170.667V0H1756V1170.667Z" fill="url(#radial-gradient)"/>
      </g>
      <g id="Graphic_Elements">
        <g id="Group_12195" data-name="Group 12195">
          <g id="Group_12192" data-name="Group 12192" clip-path="url(#clip-path-2)">
            <path id="Path_932" data-name="Path 932" d="M-59.266,967.375a947.456,947.456,0,0,1-54.189-176.109c-6.073-30.156-10.931-60.575-14.172-91.186q-4.893-45.913-5.23-92.186-.187-23.1.8-46.2.878-23.091,2.9-46.132,4.03-46.064,12.576-91.631A972.459,972.459,0,0,1-65.32,246.079q17.13-43.132,38.285-84.589,21.129-41.4,46.278-80.671L25.6,71.064c2.117-3.253,4.217-6.519,6.445-9.7l6.589-9.6c2.188-3.209,4.39-6.408,6.685-9.539q13.482-19,27.871-37.374,28.8-36.7,61.182-70.514A955.847,955.847,0,0,1,276.277-187.571a965.412,965.412,0,0,1,163.64-92.259c114.926-50.767,240.492-79.338,367.327-81.907A961.18,961.18,0,0,1,1499.969-86.467q34.255,33.733,65.088,70.764c5.068,6.212,10.284,12.308,15.16,18.677,4.909,6.339,9.981,12.56,14.695,19.048l7.163,9.665,3.554,4.852,3.449,4.929,6.894,9.86,3.439,4.936,3.325,5.012a967.473,967.473,0,0,1,146.711,353.1,960.636,960.636,0,0,1-275.566,876.241A951.71,951.71,0,0,1,1344.988,1407.8a966.1,966.1,0,0,1-348.98,136.288q-46.207,8.247-92.98,11.892-46.7,3.626-93.5,2.734-46.729-.882-93.125-6.365-46.317-5.514-91.89-15.324a964.9,964.9,0,0,1-339.009-145.7q-38.265-26.039-73.819-55.716-17.749-14.816-34.751-30.477-17.053-15.593-33.313-32.015-32.51-32.824-61.653-68.734c-19.407-23.895-37.552-48.786-54.641-74.364A947.859,947.859,0,0,1-59.266,967.375Zm4.432-1.842a942.411,942.411,0,0,0,86.61,161.511,928.182,928.182,0,0,0,116.467,141.438,936.694,936.694,0,0,0,661.279,272.391A927.5,927.5,0,0,0,991.67,1522.5a940.032,940.032,0,0,0,336.346-140.105A932.467,932.467,0,0,0,1722.963,423.73,946.432,946.432,0,0,0,1583.272,87.654,926.129,926.129,0,0,0,1467.281-53.675a935.476,935.476,0,0,0-660-273.064,927,927,0,0,0-182.087,18.066A940.041,940.041,0,0,0,288.623-169.111,931.4,931.4,0,0,0-55.129,250.283a936.534,936.534,0,0,0-71.177,357.6,928.043,928.043,0,0,0,18.091,182.323A942.233,942.233,0,0,0-54.833,965.533Z" transform="translate(-61.57 -167.704)" fill="url(#linear-gradient)"/>
          </g>
          <g id="Group_12193" data-name="Group 12193" clip-path="url(#clip-path-2)">
            <path id="Path_933" data-name="Path 933" d="M1241.092,1778.9a746.131,746.131,0,0,1-117.554-85.04c-18.11-16.087-35.6-32.9-52.156-50.6s-32.268-36.212-47.02-55.466q-11.074-14.432-21.409-29.422-10.409-14.928-20.078-30.369-19.336-30.864-35.6-63.561a761.939,761.939,0,0,1-77.687-280.207c-.392-6.1-.941-12.2-1.2-18.315-.244-6.112-.653-12.226-.759-18.347q-.569-18.361-.265-36.753.641-36.773,4.907-73.446a754.477,754.477,0,0,1,90.175-280.227c48.123-86.7,113.54-164.564,192.212-226.661a758.524,758.524,0,0,1,568.029-156.565q37.7,4.976,74.807,13.669,18.528,4.324,36.825,9.6c12.2,3.5,24.275,7.4,36.267,11.543A763.7,763.7,0,0,1,2131.339,561.94a757.094,757.094,0,0,1-189.987,1251.815,761.7,761.7,0,0,1-282.536,68.627q-36.417,1.719-72.848-.139-18.185-.926-36.3-2.739-18.115-1.738-36.124-4.373-36-5.261-71.34-14.058c-23.526-5.845-46.726-12.921-69.595-20.91A745.675,745.675,0,0,1,1241.092,1778.9Zm2.123-3.617a741.552,741.552,0,0,0,130.932,60.477,734.692,734.692,0,0,0,790.5-206.125,739.694,739.694,0,0,0,144.992-247.33,733.653,733.653,0,0,0-205.831-789.373,745.234,745.234,0,0,0-246.9-145.019,733.793,733.793,0,0,0-789.691,204.562A739.652,739.652,0,0,0,921.784,899.541a734.845,734.845,0,0,0,204.858,790.825A741.55,741.55,0,0,0,1243.215,1775.284Z" transform="translate(401.826 170.282)" fill="url(#linear-gradient-2)"/>
          </g>
          <g id="Group_12194" data-name="Group 12194" clip-path="url(#clip-path-2)">
            <path id="Path_934" data-name="Path 934" d="M2305.512,540.547A677.7,677.7,0,0,1,2354.1,663.053c6.019,21.164,11.257,42.567,15.328,64.213q6.135,32.46,9.046,65.448,1.464,16.467,2.09,33,.729,16.524.642,33.08-.167,33.1-3.588,66.125a696.227,696.227,0,0,1-149.878,365.173,691.471,691.471,0,0,1-982,97.159q-26.764-22.418-51.25-47.431-12.233-12.476-23.82-25.573c-7.732-8.719-15.157-17.706-22.407-26.829a697.929,697.929,0,0,1-126.272-247.357,691.867,691.867,0,0,1,497.664-855.949q32.769-8.253,66.153-13.224,33.331-4.952,66.93-6.69a695.822,695.822,0,0,1,133.664,6.1,696.179,696.179,0,0,1,250,86.5q28.713,16.561,55.671,35.859,13.46,9.632,26.428,19.906,13.016,10.2,25.507,21.04,24.977,21.66,47.713,45.7c15.144,15.993,29.419,32.776,43.035,50.062A677.818,677.818,0,0,1,2305.512,540.547Zm-4.219,2.154a672.533,672.533,0,0,0-70.676-110.076A666.261,666.261,0,0,0,1525.6,205.02,670.7,670.7,0,0,0,1294.214,323.5a665.071,665.071,0,0,0-227.2,703.774,676.958,676.958,0,0,0,118.053,231.148,663.39,663.39,0,0,0,316.879,220.845A666.312,666.312,0,0,0,2301.293,542.7Z" transform="translate(461.801 75.651)" fill="url(#linear-gradient-3)"/>
          </g>
        </g>
      </g>
    </g>
  </g>
</svg>
