<svg xmlns="http://www.w3.org/2000/svg" xmlns:xlink="http://www.w3.org/1999/xlink" width="415" height="788" viewBox="0 0 415 788">
  <defs>
    <clipPath id="clip-path">
      <rect id="Rectangle_19862" data-name="Rectangle 19862" width="415" height="788" rx="14" transform="translate(6074 2006)" fill="#fff" stroke="#038581" stroke-width="1"/>
    </clipPath>
    <radialGradient id="radial-gradient" cx="0.006" cy="0.531" r="1.318" gradientUnits="objectBoundingBox">
      <stop offset="0.287" stop-color="#fff"/>
      <stop offset="0.499" stop-color="#fcfefd"/>
      <stop offset="0.628" stop-color="#f4faf6"/>
      <stop offset="0.735" stop-color="#e6f4e9"/>
      <stop offset="0.83" stop-color="#d1ead8"/>
      <stop offset="0.915" stop-color="#b7dec1"/>
      <stop offset="0.995" stop-color="#97d0a6"/>
      <stop offset="1" stop-color="#95cfa4"/>
    </radialGradient>
    <clipPath id="clip-path-2">
      <rect id="Rectangle_19863" data-name="Rectangle 19863" width="800" height="1200" transform="translate(0 800) rotate(-90)"/>
    </clipPath>
    <linearGradient id="linear-gradient" x1="0.952" y1="0.312" x2="0.028" y2="0.696" gradientUnits="objectBoundingBox">
      <stop offset="0" stop-color="#3aa36c"/>
      <stop offset="1" stop-color="#3aa36c" stop-opacity="0"/>
    </linearGradient>
    <linearGradient id="linear-gradient-2" x1="0.747" y1="0.079" x2="0.24" y2="0.942" gradientUnits="objectBoundingBox">
      <stop offset="0" stop-color="#4dc265"/>
      <stop offset="0.069" stop-color="#4dc265" stop-opacity="0.929"/>
      <stop offset="1" stop-color="#4dc265" stop-opacity="0"/>
    </linearGradient>
    <linearGradient id="linear-gradient-3" x1="0.067" y1="0.721" x2="0.959" y2="0.265" gradientUnits="objectBoundingBox">
      <stop offset="0" stop-color="#77c276"/>
      <stop offset="0.141" stop-color="#77c276" stop-opacity="0.859"/>
      <stop offset="1" stop-color="#77c276" stop-opacity="0"/>
    </linearGradient>
  </defs>
  <g id="Mask_Group_12276" data-name="Mask Group 12276" transform="translate(-6074 -2006)" clip-path="url(#clip-path)">
    <g id="_14547798_rm222batch3-kul-18" data-name="14547798_rm222batch3-kul-18" transform="translate(5443 2000)">
      <g id="Background">
        <path id="Path_935" data-name="Path 935" d="M0,800V0H1200V800Z" transform="translate(112)" fill="url(#radial-gradient)"/>
      </g>
      <g id="Graphic_Elements">
        <g id="Group_12199" data-name="Group 12199">
          <g id="Group_12196" data-name="Group 12196" clip-path="url(#clip-path-2)">
            <path id="Path_936" data-name="Path 936" d="M-82.576,546.472a647.463,647.463,0,0,1-37.031-120.348c-4.15-20.608-7.47-41.395-9.685-62.314s-3.421-41.95-3.574-63q-.128-15.785.55-31.569.6-15.78,1.98-31.525,2.754-31.479,8.594-62.618A664.551,664.551,0,0,1-86.713,53.559Q-75.007,24.084-60.55-4.247q14.439-28.292,31.625-55.128l4.342-6.666c1.447-2.223,2.882-4.455,4.4-6.627l4.5-6.562c1.495-2.193,3-4.379,4.568-6.519q9.213-12.987,19.046-25.54,19.68-25.08,41.81-48.187a653.2,653.2,0,0,1,96.976-83.309,659.734,659.734,0,0,1,111.827-63.047,655.1,655.1,0,0,1,622.206,50.081,650.7,650.7,0,0,1,102.2,82.058q23.409,23.052,44.479,48.358c3.463,4.245,7.028,8.411,10.36,12.763,3.355,4.332,6.821,8.583,10.042,13.017l4.9,6.605,2.429,3.316,2.357,3.368,4.711,6.738,2.35,3.373,2.272,3.425a661.144,661.144,0,0,1,100.258,241.3A656.471,656.471,0,0,1,978.8,767.366a650.368,650.368,0,0,1-101.748,80.078,660.206,660.206,0,0,1-238.483,93.135q-31.577,5.636-63.54,8.127-31.913,2.478-63.893,1.868-31.934-.6-63.639-4.35-31.652-3.768-62.8-10.472a659.383,659.383,0,0,1-231.669-99.569q-26.149-17.794-50.446-38.075-12.129-10.125-23.748-20.827Q67.185,766.625,56.073,755.4q-22.217-22.431-42.132-46.971C.679,692.1-11.721,675.093-23.4,657.614A647.739,647.739,0,0,1-82.576,546.472Zm3.029-1.259A644.018,644.018,0,0,0-20.36,655.585,634.292,634.292,0,0,0,59.23,752.24a640.11,640.11,0,0,0,451.9,186.144A633.825,633.825,0,0,0,635.6,925.828a642.39,642.39,0,0,0,229.849-95.744,633.48,633.48,0,0,0,96.53-79.487,639.294,639.294,0,0,0,185.906-451.323,632.876,632.876,0,0,0-12.54-124.313A646.764,646.764,0,0,0,1039.887-54.7a632.89,632.89,0,0,0-79.265-96.58,639.277,639.277,0,0,0-451.027-186.6,633.481,633.481,0,0,0-124.433,12.346,642.4,642.4,0,0,0-230,95.372A633.655,633.655,0,0,0,58.456-150.8a640.114,640.114,0,0,0-186.845,451.61A634.2,634.2,0,0,0-116.026,425.4,643.9,643.9,0,0,0-79.547,545.213Z" fill="url(#linear-gradient)"/>
          </g>
          <g id="Group_12197" data-name="Group 12197" clip-path="url(#clip-path-2)">
            <path id="Path_937" data-name="Path 937" d="M1122.723,1332.016a509.883,509.883,0,0,1-80.333-58.114c-12.376-10.993-24.326-22.48-35.642-34.579s-22.051-24.746-32.132-37.9q-7.567-9.862-14.63-20.106-7.113-10.2-13.721-20.753-13.214-21.092-24.327-43.436a520.688,520.688,0,0,1-53.089-191.485c-.268-4.17-.643-8.338-.823-12.516s-.446-8.355-.519-12.538q-.388-12.547-.181-25.116.438-25.129,3.353-50.191a517.469,517.469,0,0,1,581.15-453.385q25.761,3.4,51.121,9.341,12.662,2.955,25.165,6.557c8.335,2.389,16.589,5.057,24.784,7.888a521.895,521.895,0,0,1,178.193,104.7,517.376,517.376,0,0,1-129.832,855.454,520.528,520.528,0,0,1-193.077,46.9q-24.886,1.174-49.782-.095-12.428-.633-24.807-1.872-12.38-1.188-24.686-2.988-24.6-3.6-48.752-9.607c-16.077-3.994-31.931-8.83-47.559-14.289A509.577,509.577,0,0,1,1122.723,1332.016Zm1.451-2.472a506.752,506.752,0,0,0,89.475,41.328,502.069,502.069,0,0,0,540.2-140.86,505.479,505.479,0,0,0,99.083-169.018,501.359,501.359,0,0,0-140.659-539.435,509.271,509.271,0,0,0-168.724-99.1A501.453,501.453,0,0,0,1003.9,562.249a505.458,505.458,0,0,0-99.384,168.838,502.172,502.172,0,0,0,139.994,540.427A506.748,506.748,0,0,0,1124.174,1329.544Z" fill="url(#linear-gradient-2)"/>
          </g>
          <g id="Group_12198" data-name="Group 12198" clip-path="url(#clip-path-2)">
            <path id="Path_938" data-name="Path 938" d="M1891.1,421.092a463.113,463.113,0,0,1,33.2,83.717c4.113,14.463,7.693,29.089,10.475,43.881s4.859,29.72,6.182,44.725q1,11.253,1.428,22.551.5,11.292.439,22.606-.114,22.62-2.452,45.188a475.782,475.782,0,0,1-102.422,249.549,472.532,472.532,0,0,1-671.069,66.4q-18.289-15.32-35.023-32.413-8.359-8.526-16.278-17.476c-5.284-5.958-10.358-12.1-15.312-18.334a476.941,476.941,0,0,1-86.291-169.037,472.8,472.8,0,0,1,340.089-584.931q22.393-5.64,45.207-9.037,22.778-3.384,45.738-4.572a475.5,475.5,0,0,1,91.342,4.166A475.747,475.747,0,0,1,1707.2,227.182q19.622,11.317,38.044,24.505,9.2,6.582,18.06,13.6,8.9,6.972,17.431,14.378,17.069,14.8,32.606,31.229c10.349,10.929,20.1,22.4,29.409,34.211A463.2,463.2,0,0,1,1891.1,421.092Zm-2.883,1.472a459.606,459.606,0,0,0-48.3-75.223A455.3,455.3,0,0,0,1358.13,191.8a458.335,458.335,0,0,0-158.12,80.967,454.491,454.491,0,0,0-155.261,480.939,462.614,462.614,0,0,0,80.674,157.96,453.341,453.341,0,0,0,216.546,150.919,455.339,455.339,0,0,0,546.25-640.023Z" fill="url(#linear-gradient-3)"/>
          </g>
        </g>
      </g>
    </g>
  </g>
</svg>
